<?xml version="1.0" standalone="no"?>
<!DOCTYPE svg PUBLIC "-//W3C//DTD SVG 20010904//EN"
 "http://www.w3.org/TR/2001/REC-SVG-20010904/DTD/svg10.dtd">
<svg version="1.0" xmlns="http://www.w3.org/2000/svg"
 width="747.000000pt" height="747.000000pt" viewBox="0 0 747.000000 747.000000"
 preserveAspectRatio="xMidYMid meet">
<metadata>
Created by potrace 1.11, written by Peter Selinger 2001-2013
</metadata>
<g transform="translate(0.000000,747.000000) scale(0.100000,-0.100000)"
fill="#000000" stroke="none">
<path d="M3178 6485 c-2 -1 -55 -5 -118 -9 -63 -3 -126 -8 -140 -10 -14 -2
-52 -7 -85 -11 -59 -6 -94 -11 -157 -19 -18 -3 -73 -10 -123 -16 -49 -6 -97
-13 -105 -15 -8 -2 -40 -7 -70 -10 -75 -9 -196 -41 -246 -65 -38 -19 -192
-164 -246 -234 -13 -15 -33 -40 -45 -54 -12 -14 -51 -76 -88 -138 -37 -62 -73
-118 -81 -125 -11 -9 -23 -9 -53 3 -84 33 -292 -3 -448 -79 -49 -24 -67 -49
-69 -97 -4 -113 11 -125 186 -142 141 -13 213 -14 227 -3 7 7 16 10 18 7 3 -2
-25 -96 -61 -209 -37 -112 -86 -267 -111 -344 -25 -77 -47 -147 -50 -155 -3
-8 -7 -19 -8 -25 -5 -21 -149 -477 -205 -650 -53 -163 -78 -257 -95 -355 -3
-19 -10 -51 -15 -70 -5 -19 -11 -48 -14 -65 -19 -118 -80 -354 -106 -405 -18
-37 -39 -198 -45 -340 -4 -100 -15 -239 -20 -260 -10 -37 -19 -142 -19 -225 0
-105 12 -357 19 -388 2 -12 6 -45 9 -72 3 -28 12 -73 21 -100 8 -27 17 -90 20
-140 12 -203 26 -258 105 -415 101 -202 110 -211 220 -253 108 -40 168 -47
370 -42 199 5 341 13 381 20 12 2 30 12 40 21 18 16 20 14 39 -31 11 -26 29
-60 40 -75 11 -16 20 -42 20 -59 0 -42 33 -104 67 -129 51 -36 106 -47 170
-32 65 14 101 45 146 125 48 88 111 159 147 166 31 7 1286 3 1906 -5 323 -4
343 -7 365 -48 6 -11 28 -40 50 -62 21 -23 49 -65 64 -93 42 -86 104 -119 202
-110 93 9 151 65 172 166 6 30 22 75 35 100 13 25 27 55 31 66 6 20 6 20 23
-2 22 -27 36 -30 157 -38 55 -3 132 -8 170 -11 210 -14 306 -13 383 7 104 26
175 63 210 107 34 44 137 234 157 291 8 22 16 59 19 81 9 61 15 111 21 155 9
83 17 122 36 184 26 87 29 102 34 211 3 52 8 120 12 150 9 81 9 277 -1 335 -4
28 -10 59 -11 71 -5 37 -15 204 -20 329 -8 213 -15 268 -37 310 -29 56 -60
159 -119 390 -28 110 -52 208 -54 217 -15 72 -63 229 -99 322 -24 61 -68 185
-98 276 -68 204 -156 457 -198 570 -53 142 -95 258 -149 409 l-51 143 32 -27
c31 -27 32 -27 152 -20 236 12 273 26 283 102 8 63 -12 109 -60 137 -63 37
-185 75 -289 90 -105 15 -125 15 -186 -4 -26 -8 -46 -10 -51 -4 -5 5 -35 59
-66 119 -73 141 -120 206 -239 332 -80 84 -106 105 -151 122 -59 22 -154 46
-225 56 -25 3 -58 8 -75 11 -35 6 -62 10 -130 19 -91 11 -120 15 -145 20 -14
2 -50 7 -80 10 -30 3 -66 7 -80 9 -42 7 -160 18 -275 25 -103 7 -1040 12
-1047 6z m1669 -5521 c-3 -3 -12 -4 -19 -1 -8 3 -5 6 6 6 11 1 17 -2 13 -5z"/>
</g>
</svg>
